<?xml version="1.0" encoding="utf-8"?>
<!-- Generator: Adobe Illustrator 17.0.0, SVG Export Plug-In . SVG Version: 6.00 Build 0)  -->
<!DOCTYPE svg PUBLIC "-//W3C//DTD SVG 1.1//EN" "http://www.w3.org/Graphics/SVG/1.1/DTD/svg11.dtd">
<svg version="1.1" id="图层_1" xmlns="http://www.w3.org/2000/svg" xmlns:xlink="http://www.w3.org/1999/xlink" x="0px" y="0px"
	viewBox="-650 -250 1920 600" >
	<g id="github">
		<path d="M13.1 0c1.3 0 2.5 0.1 3.6 0.4c1.1 0.2 2 0.6 2.8 1.1c0.8 0.5 1.4 1.2 1.8 2.1c0.4 0.9 0.6 2 0.6 3.2 c0 1.4-0.3 2.6-1 3.5c-0.6 0.9-1.6 1.7-2.8 2.3c1.7 0.5 3 1.4 3.8 2.6c0.8 1.2 1.3 2.7 1.3 4.4c0 1.4-0.3 2.6-0.8 3.6 c-0.5 1-1.3 1.9-2.2 2.5c-0.9 0.6-2 1.1-3.2 1.4c-1.2 0.3-2.4 0.5-3.6 0.5H0V0H13.1z M12.3 11.2c1.1 0 2-0.3 2.7-0.8 c0.7-0.5 1-1.4 1-2.5c0-0.6-0.1-1.2-0.3-1.6c-0.2-0.4-0.5-0.7-0.9-1c-0.4-0.2-0.8-0.4-1.3-0.5c-0.5-0.1-1-0.1-1.6-0.1H6.1v6.5 H12.3z M12.6 23c0.6 0 1.2-0.1 1.7-0.2c0.5-0.1 1-0.3 1.4-0.6c0.4-0.3 0.7-0.6 1-1.1c0.2-0.5 0.4-1.1 0.4-1.8 c0-1.4-0.4-2.4-1.2-3.1c-0.8-0.6-1.9-0.9-3.2-0.9H6.1V23H12.6z"></path>
		
		<path d="M31.9 22.9c0.8 0.8 2 1.2 3.6 1.2c1.1 0 2.1-0.3 2.9-0.8c0.8-0.6 1.3-1.2 1.5-1.8h4.9c-0.8 2.4-2 4.1-3.6 5.2 c-1.6 1-3.5 1.6-5.8 1.6c-1.6 0-3-0.3-4.3-0.8c-1.3-0.5-2.3-1.2-3.2-2.2c-0.9-0.9-1.6-2-2-3.3c-0.5-1.3-0.7-2.7-0.7-4.3 c0-1.5 0.2-2.9 0.7-4.2c0.5-1.3 1.2-2.4 2.1-3.4c0.9-0.9 2-1.7 3.2-2.2c1.3-0.5 2.6-0.8 4.2-0.8c1.7 0 3.2 0.3 4.5 1 c1.3 0.7 2.3 1.5 3.1 2.7c0.8 1.1 1.4 2.4 1.8 3.8C45 16 45.1 17.4 45 19H30.5C30.5 20.6 31.1 22.1 31.9 22.9z M38.2 12.4 c-0.7-0.7-1.8-1.1-3.1-1.1c-0.9 0-1.6 0.2-2.2 0.5c-0.6 0.3-1 0.7-1.4 1.1c-0.4 0.4-0.6 0.9-0.7 1.4c-0.1 0.5-0.2 0.9-0.2 1.3h9 C39.4 14.1 38.9 13.1 38.2 12.4z"></path>
		
		<path d="M52.8 0v10.4h0.1c0.7-1.2 1.6-2 2.7-2.5c1.1-0.5 2.1-0.8 3.2-0.8c1.5 0 2.7 0.2 3.6 0.6c0.9 0.4 1.7 1 2.2 1.7 c0.5 0.7 0.9 1.6 1.1 2.6c0.2 1 0.3 2.1 0.3 3.4v12.3h-5.5V16.4c0-1.7-0.3-2.9-0.8-3.7c-0.5-0.8-1.4-1.2-2.7-1.2 c-1.5 0-2.6 0.5-3.2 1.3c-0.7 0.9-1 2.4-1 4.4v10.5h-5.5V0H52.8z"></path>
		
		<path d="M70 10.6c0.6-0.9 1.3-1.5 2.2-2.1c0.9-0.5 1.9-0.9 3-1.1c1.1-0.2 2.2-0.3 3.3-0.3c1 0 2 0.1 3.1 0.2c1 0.1 2 0.4 2.8 0.8 c0.9 0.4 1.5 1 2.1 1.7c0.5 0.7 0.8 1.7 0.8 2.9v10.5c0 0.9 0.1 1.8 0.2 2.6c0.1 0.8 0.4 1.5 0.7 1.9l-5.6 0 c-0.2-0.2-0.3-0.6-0.4-0.9c-0.1-0.3-0.1-0.7-0.1-1c-0.9 0.9-1.9 1.5-3.1 1.9c-1.2 0.4-2.4 0.5-3.6 0.5c-1 0-1.8-0.1-2.7-0.4 c-0.8-0.2-1.5-0.6-2.2-1.1c-0.6-0.5-1.1-1.1-1.5-1.9c-0.3-0.8-0.5-1.6-0.5-2.7c0-1.1 0.2-2.1 0.6-2.8c0.4-0.7 0.9-1.3 1.5-1.8 c0.6-0.4 1.4-0.8 2.2-1c0.8-0.2 1.6-0.4 2.5-0.5c0.8-0.1 1.6-0.2 2.4-0.3c0.8-0.1 1.5-0.2 2.1-0.3c0.6-0.2 1.1-0.4 1.5-0.7 c0.4-0.3 0.5-0.7 0.5-1.3c0-0.6-0.1-1.1-0.3-1.4c-0.2-0.3-0.5-0.6-0.8-0.8c-0.3-0.2-0.7-0.3-1.1-0.4c-0.4-0.1-0.9-0.1-1.4-0.1 c-1.1 0-1.9 0.2-2.5 0.7c-0.6 0.5-1 1.3-1.1 2.3h-5.5C69.1 12.5 69.5 11.4 70 10.6z M80.9 18.4c-0.3 0.1-0.7 0.2-1.1 0.3 c-0.4 0.1-0.8 0.1-1.3 0.2c-0.4 0.1-0.9 0.1-1.3 0.2c-0.4 0.1-0.8 0.2-1.2 0.3c-0.4 0.1-0.8 0.3-1 0.5c-0.3 0.2-0.5 0.5-0.7 0.8 C74 21.1 74 21.5 74 22c0 0.5 0.1 0.9 0.3 1.2c0.2 0.3 0.4 0.6 0.7 0.8c0.3 0.2 0.7 0.3 1.1 0.4c0.4 0.1 0.8 0.1 1.3 0.1 c1.1 0 1.9-0.2 2.5-0.5c0.6-0.4 1-0.8 1.3-1.3c0.3-0.5 0.5-1 0.5-1.5c0.1-0.5 0.1-0.9 0.1-1.2v-2.1 C81.5 18.1 81.2 18.3 80.9 18.4z"></path>
		
		<path d="M95.6 7.6v2.8h0.1c0.7-1.2 1.6-2 2.7-2.5c1.1-0.5 2.3-0.8 3.4-0.8c1.5 0 2.7 0.2 3.6 0.6c1 0.4 1.7 1 2.2 1.7 c0.5 0.7 0.9 1.6 1.2 2.6c0.2 1 0.3 2.1 0.3 3.4v12.3h-5.5V16.4c0-1.7-0.3-2.9-0.8-3.7c-0.5-0.8-1.4-1.3-2.8-1.3 c-1.5 0-2.6 0.6-3.3 1.5c-0.7 0.9-1 2.4-1 4.4v10.5h-5.5V7.6H95.6z"></path>
		
		<path d="M121.4 11.2c-0.9 0-1.6 0.2-2.2 0.6c-0.6 0.4-1.1 0.9-1.5 1.6c-0.4 0.6-0.6 1.3-0.8 2.1c-0.2 0.8-0.2 1.5-0.2 2.3 c0 0.7 0.1 1.5 0.2 2.2c0.2 0.8 0.4 1.4 0.8 2c0.4 0.6 0.8 1.1 1.4 1.5c0.6 0.4 1.3 0.6 2.2 0.6c1.3 0 2.3-0.4 3.1-1.1 c0.7-0.7 1.2-1.7 1.3-3h5.3c-0.4 2.7-1.4 4.7-3.1 6.1c-1.7 1.4-3.9 2.1-6.6 2.1c-1.5 0-2.9-0.3-4.1-0.8c-1.3-0.5-2.3-1.2-3.2-2.1 c-0.9-0.9-1.6-2-2.1-3.2c-0.5-1.3-0.7-2.6-0.7-4.1c0-1.6 0.2-3 0.7-4.3c0.5-1.3 1.1-2.5 2-3.5c0.9-1 2-1.7 3.2-2.3 c1.3-0.5 2.7-0.8 4.3-0.8c1.2 0 2.3 0.2 3.4 0.5c1.1 0.3 2.1 0.8 2.9 1.4c0.9 0.6 1.6 1.4 2.1 2.4c0.5 0.9 0.8 2.1 0.9 3.4h-5.4 C125.1 12.4 123.8 11.2 121.4 11.2z"></path>
		
		<path d="M139.3 22.9c0.8 0.8 2.1 1.2 3.6 1.2c1.1 0 2.1-0.3 2.9-0.8c0.8-0.6 1.3-1.2 1.5-1.8h4.8c-0.8 2.4-2 4.1-3.6 5.2 c-1.6 1-3.5 1.6-5.8 1.6c-1.6 0-3-0.3-4.3-0.8c-1.3-0.5-2.3-1.2-3.2-2.2c-0.9-0.9-1.6-2-2-3.3c-0.5-1.3-0.7-2.7-0.7-4.3 c0-1.5 0.2-2.9 0.7-4.2c0.5-1.3 1.2-2.4 2.1-3.4c0.9-0.9 2-1.7 3.2-2.2c1.3-0.5 2.7-0.8 4.2-0.8c1.7 0 3.2 0.3 4.4 1 c1.3 0.7 2.3 1.5 3.1 2.7c0.8 1.1 1.4 2.4 1.8 3.8c0.4 1.4 0.5 2.9 0.4 4.5h-14.5C137.9 20.6 138.5 22.1 139.3 22.9z M145.7 12.4 c-0.7-0.7-1.8-1.1-3.1-1.1c-0.9 0-1.6 0.2-2.2 0.5c-0.6 0.3-1.1 0.7-1.4 1.1c-0.3 0.4-0.6 0.9-0.7 1.4c-0.1 0.5-0.2 0.9-0.2 1.3 h9C146.8 14.1 146.3 13.1 145.7 12.4z"></path>
		<rect x="29.4" y="1.9" width="11.2" height="2.7"></rect>
	</g>
	
</svg>
