<?xml version="1.0" encoding="utf-8"?>
<!-- Generator: Adobe Illustrator 17.0.0, SVG Export Plug-In . SVG Version: 6.00 Build 0)  -->
<!DOCTYPE svg PUBLIC "-//W3C//DTD SVG 1.1//EN" "http://www.w3.org/Graphics/SVG/1.1/DTD/svg11.dtd">
<svg version="1.1" id="图层_1" xmlns="http://www.w3.org/2000/svg" xmlns:xlink="http://www.w3.org/1999/xlink" x="0px" y="0px"
	 width="50.463px" height="50.463px" viewBox="0 0 50.463 50.463" enable-background="new 0 0 50.463 50.463" xml:space="preserve">
<path fill="#A10000" d="M49.275,30.188c0.536-0.683,1.152-1.818,1.186-3.446c0.093-4.579-4.294-6.119-6.705-6.295h-7.361
	l-0.104-0.006c-0.298-0.645,0.165-1.36,0.16-1.36l-0.001,0.001c0.099-0.119,2.438-2.977,4.012-7.652
	c1.747-5.185-2.732-8.855-2.923-9.008l-0.261-0.155c-0.173-0.071-1.734-0.671-3.209,0.196c-1.127,0.664-1.81,1.948-2.029,3.82
	c-0.509,4.348-4.159,7.993-5.862,9.329c-0.24,0.187-0.432,0.338-0.562,0.451c-1.24,1.072-2.472,3.881-3.405,5.795
	c-0.623,1.278-2.336,3.335-3.216,4.093c-0.601,0.013-1.786,0.035-2.578,0.039c-0.301-0.954-1.184-2.082-2.235-2.082H2.915
	c-1.299,0-2.355,1.057-2.355,2.354v21.843c0,1.299,1.057,2.355,2.355,2.355h11.267c1.146,0,2.1-0.824,2.309-1.909
	c0.405-0.017,0.774-0.396,0.986-0.368c0.293,0.319,0.953,1.559,2.568,2.213l0.19,0.078h0.206c0.129,0.001,7.573,0.022,14.323,0.022
	c3.406,0,6.366-0.005,7.573-0.022c2.182-0.028,3.317-0.986,3.884-1.784c1.099-1.546,1.123-3.305,0.922-4.354
	c1.428-1.314,1.596-3.683,1.631-4.665c0.032-0.88-0.182-1.506-0.471-2.139c0.801-0.726,1.614-2.15,1.726-3.959
	C50.126,31.995,49.697,30.883,49.275,30.188z M14.408,48.106c0,0.126-0.102,0.227-0.226,0.227H2.915
	c-0.126,0-0.228-0.102-0.228-0.227V26.263c0-0.125,0.102-0.226,0.228-0.226h11.267c0.125,0,0.226,0.102,0.226,0.226V48.106z
	 M47.251,29.248l-1.052,0.775l0.965,0.89c0.035,0.032,0.848,0.801,0.742,2.531c-0.121,1.975-1.462,2.817-1.475,2.824l-1.539,0.642
	l1.235,1.096c0.103,0.116,0.609,0.729,0.511,1.747c-0.084,0.87-0.402,2.64-1.328,3.347l-1.207,0.461l0.845,0.72
	c0.215,0.644,0.252,2.173-0.461,3.177c-0.416,0.585-1.128,0.876-2.178,0.889c-3.38,0.046-19.544,0.006-21.652,0.001
	c-0.669-0.284-1.343-0.632-1.563-0.808c-0.186-0.332-0.693-1.566-2.605-1.504V28.117c1.123-0.007,2.927-0.047,2.927-0.047
	l0.366-0.008l0.283-0.23c0.123-0.1,3.014-2.896,4.061-5.041c1.001-2.055,2.032-4.382,2.883-5.117
	c0.112-0.097,0.278-0.225,0.484-0.388c1.747-1.369,6.051-5.527,6.663-10.755c0.135-1.149,0.475-1.92,0.984-2.227
	c0.434-0.262,0.963-0.17,1.202-0.107c0.63,0.569,3.24,3.19,2.107,6.554c-1.441,4.28-3.614,6.95-3.68,7.035
	c-0.541,0.758-1.184,2.449-0.163,3.981c0.463,0.696,1.265,0.873,1.859,0.808l7.213-0.003c0.193,0.016,4.734,0.422,4.659,4.127
	C48.297,28.436,47.283,29.223,47.251,29.248z"/>
</svg>
